<?xml version="1.0" standalone="no"?>
<!DOCTYPE svg PUBLIC "-//W3C//DTD SVG 20010904//EN"
 "http://www.w3.org/TR/2001/REC-SVG-20010904/DTD/svg10.dtd">
<svg version="1.0" xmlns="http://www.w3.org/2000/svg"
 width="16.000000pt" height="16.000000pt" viewBox="0 0 16.000000 16.000000"
 preserveAspectRatio="xMidYMid meet">
<metadata>
Created by potrace 1.11, written by Peter Selinger 2001-2013
</metadata>
<g transform="translate(0.000000,16.000000) scale(0.002286,-0.002286)"
fill="#000000" stroke="none">
<path d="M5230 5421 c0 -6 -7 -11 -15 -11 -8 0 -15 -4 -15 -9 0 -5 -9 -12 -19
-16 -11 -3 -23 -14 -26 -25 -3 -10 -28 -42 -56 -72 -28 -29 -47 -47 -43 -39 5
10 3 12 -5 7 -7 -4 -10 -13 -8 -19 2 -7 -36 -57 -85 -112 -101 -113 -113 -127
-113 -135 0 -3 -16 -21 -35 -41 -52 -54 -91 -98 -135 -153 -22 -28 -60 -71
-85 -97 -62 -64 -98 -107 -94 -112 2 -2 -10 -17 -28 -33 -18 -17 -29 -22 -25
-13 4 13 1 16 -14 12 -10 -3 -19 -10 -19 -17 0 -6 -22 -33 -48 -61 -26 -27
-79 -88 -117 -135 -39 -46 -115 -137 -170 -200 -55 -64 -116 -136 -135 -160
-19 -24 -47 -58 -62 -76 -16 -17 -28 -34 -28 -37 0 -3 -18 -24 -40 -46 -22
-22 -40 -42 -40 -45 0 -3 -13 -19 -30 -37 -16 -18 -26 -37 -23 -42 3 -6 1 -7
-5 -3 -7 4 -16 -2 -22 -16 -12 -30 -29 -50 -60 -71 -15 -11 -19 -17 -10 -17 9
0 -3 -17 -27 -40 -41 -37 -54 -60 -34 -60 5 0 16 11 25 24 8 13 45 54 81 90
36 37 65 72 65 79 0 8 3 7 10 -3 5 -9 5 -19 -2 -27 -5 -7 -8 -18 -5 -25 3 -8
6 -6 6 6 1 13 6 16 18 12 11 -4 28 4 50 26 36 35 47 62 11 28 -12 -11 -24 -17
-27 -14 -7 7 40 43 57 44 6 0 12 5 12 11 0 5 -5 7 -12 3 -7 -4 -8 -3 -4 4 4 6
14 8 23 5 13 -5 15 -2 10 11 -4 9 -3 15 2 12 12 -8 34 21 36 45 1 11 12 30 25
42 l23 22 -24 -35 c-20 -30 -20 -33 -4 -20 11 8 23 19 26 23 3 5 10 9 15 10 5
1 8 5 7 9 -2 4 6 12 17 18 11 6 20 15 20 21 0 6 9 22 19 35 17 22 20 23 24 7
4 -17 5 -17 6 0 1 23 31 68 41 62 8 -5 51 41 43 48 -2 3 5 10 16 16 11 6 18
17 15 25 -3 9 7 21 25 32 30 18 36 27 31 49 -1 5 2 7 6 2 9 -9 44 21 44 38 0
7 11 21 25 31 14 10 25 23 25 27 0 5 10 18 23 29 12 11 16 17 10 13 -27 -13
-11 6 20 25 17 11 31 22 30 25 -7 14 -1 24 18 30 11 4 18 9 16 12 -3 2 2 13
11 22 10 10 28 32 42 50 31 39 121 148 175 211 22 26 54 64 70 85 43 55 146
168 167 183 10 7 18 19 18 25 0 7 -7 3 -15 -7 -8 -11 -15 -15 -15 -9 0 6 7 16
15 23 8 7 15 9 15 5 0 -4 7 -2 15 5 8 7 13 15 10 19 -2 4 5 20 16 37 20 31 26
26 8 -9 -8 -17 -5 -16 16 6 14 16 22 33 19 39 -4 7 -2 8 4 4 11 -6 52 30 52
46 0 5 5 6 10 3 6 -3 10 1 10 10 0 8 7 18 15 21 9 4 14 13 13 22 -2 8 3 16 10
18 7 1 8 0 2 -3 -7 -3 -6 -11 1 -24 5 -11 7 -35 3 -56 -10 -54 -11 -85 -2
-111 5 -15 4 -21 -2 -17 -14 8 -13 -18 1 -32 8 -8 8 -13 0 -17 -6 -4 -11 -13
-11 -19 0 -7 4 -6 10 3 8 13 10 12 10 -3 0 -10 4 -15 10 -12 6 3 7 -1 4 -9 -3
-9 -2 -16 4 -16 5 0 7 -12 4 -27 -3 -16 -7 -22 -10 -15 -2 6 -8 10 -13 6 -5
-3 -5 -13 1 -25 9 -15 7 -19 -5 -19 -8 0 -15 -5 -15 -10 0 -6 10 -9 23 -7 12
2 17 2 12 0 -6 -2 -17 -14 -24 -26 -13 -20 -13 -21 3 -8 21 18 31 9 17 -17 -6
-11 -7 -22 -4 -26 3 -3 1 -6 -5 -6 -6 0 -9 -7 -6 -15 4 -9 1 -28 -5 -43 -13
-30 -17 -255 -7 -335 3 -29 2 -46 -4 -42 -5 3 -7 -4 -4 -17 12 -51 14 -82 19
-288 7 -237 6 -310 -1 -322 -3 -4 -2 -8 3 -8 4 0 8 -213 7 -473 0 -259 3 -484
7 -499 4 -16 4 -28 1 -28 -4 0 -6 -60 -5 -132 5 -322 12 -605 17 -625 3 -13 2
-23 -3 -23 -9 0 -3 -156 10 -244 5 -38 8 -70 7 -72 -6 -5 -34 22 -81 77 -26
31 -44 59 -40 62 3 4 1 7 -6 7 -7 0 -9 5 -6 10 3 6 -3 10 -14 10 -12 0 -21 6
-21 13 0 8 -12 25 -27 39 -49 45 -123 130 -123 140 0 5 -40 49 -90 98 -49 49
-84 90 -77 93 8 2 1 16 -18 40 -17 21 -36 34 -45 31 -8 -3 -11 -2 -8 2 9 9
-17 59 -40 76 -31 23 -84 96 -77 107 3 6 -1 21 -9 33 -9 12 -16 18 -16 12 0
-5 5 -15 12 -22 6 -6 8 -15 4 -19 -6 -7 -60 48 -93 94 -8 13 -22 23 -31 23
-12 0 -13 -3 -4 -12 7 -7 12 -16 12 -22 0 -5 -6 -1 -14 9 -8 11 -12 25 -9 31
4 12 -23 48 -77 103 -24 25 -60 69 -98 119 -9 13 -38 46 -64 72 -27 27 -48 52
-48 55 0 7 -9 18 -99 112 -40 43 -85 95 -99 115 -13 21 -27 38 -31 39 -3 0
-14 2 -23 4 -10 2 -18 -1 -18 -5 0 -9 20 -25 32 -25 3 0 10 -4 15 -9 5 -5 2
-6 -6 -1 -10 6 -12 4 -7 -4 5 -7 11 -10 14 -7 7 7 32 -13 32 -26 0 -5 -4 -6
-10 -3 -5 3 -10 1 -10 -5 0 -7 8 -9 21 -5 18 6 21 4 17 -13 -4 -13 6 -32 29
-57 41 -45 35 -61 -7 -20 -47 45 -44 24 4 -31 56 -62 60 -67 126 -144 30 -36
71 -83 91 -105 21 -22 52 -60 71 -85 19 -25 45 -57 59 -70 21 -22 48 -53 142
-164 109 -128 177 -200 177 -189 0 7 -5 15 -10 18 -6 4 -8 10 -5 14 2 5 -7 19
-20 31 -14 13 -25 28 -25 34 0 12 44 -34 118 -122 59 -71 69 -94 19 -42 -19
19 -32 38 -30 43 2 4 -3 7 -11 7 -9 0 -16 8 -16 18 -1 16 -1 16 -11 -1 -9 -15
-1 -29 48 -84 32 -37 89 -103 128 -147 38 -45 74 -86 80 -92 5 -6 33 -38 60
-70 28 -32 60 -69 72 -81 12 -13 26 -29 30 -37 4 -8 33 -42 63 -76 30 -34 57
-71 60 -82 3 -10 8 -18 11 -16 11 5 49 -34 49 -49 0 -8 5 -11 12 -7 8 5 9 2 5
-9 -3 -9 -1 -19 5 -23 7 -4 8 -3 4 4 -4 7 -2 12 3 12 6 0 11 -6 11 -14 0 -8 4
-17 9 -20 4 -3 6 7 3 22 -8 44 -10 156 -2 167 10 16 11 63 0 70 -6 4 -7 13 -1
23 8 17 8 26 -3 109 -3 23 -1 45 4 48 6 3 10 12 10 18 0 7 -4 6 -10 -3 -8 -13
-10 -13 -10 1 0 9 3 18 6 22 9 8 11 667 3 699 -4 15 -4 30 -1 32 4 2 7 87 7
188 0 157 -2 183 -15 180 -10 -1 -9 3 5 13 16 13 18 19 7 35 -6 11 -12 23 -12
27 0 5 4 2 8 -4 4 -7 9 19 9 57 1 38 -2 72 -7 75 -5 3 -5 18 -1 33 6 21 5 698
-1 837 -1 17 1 51 4 78 3 26 3 47 0 47 -4 0 -7 47 -7 104 0 57 3 102 7 99 5
-2 4 7 -2 21 -6 16 -6 27 0 31 6 4 10 11 10 16 0 6 -4 8 -9 5 -12 -8 -8 27 4
36 6 5 5 8 -2 8 -17 0 -17 82 -1 98 7 7 8 12 2 12 -5 0 -9 63 -8 155 0 85 -2
152 -5 150 -3 -2 -5 42 -4 98 1 66 -2 107 -10 116 -7 8 -7 12 -2 9 6 -4 11 26
11 80 1 49 -1 76 -5 62 -7 -24 -8 -24 -13 8 -3 23 -1 31 8 28 8 -3 10 3 6 17
-3 12 -7 16 -10 9 -2 -6 -7 -12 -11 -12 -10 0 -9 44 2 51 5 4 4 16 -3 29 -8
15 -8 20 -1 16 7 -4 11 1 11 13 0 10 5 21 12 23 9 3 9 6 0 12 -7 4 -12 2 -12
-3z m-59 -130 c-9 -6 -10 -11 -2 -15 6 -4 11 -13 11 -19 0 -7 -5 -4 -11 6 -6
10 -16 14 -22 10 -7 -3 -3 3 7 15 11 12 22 20 25 17 3 -4 -1 -10 -8 -14z m6
-118 c-3 -10 -5 -4 -5 12 0 17 2 24 5 18 2 -7 2 -21 0 -30z m-141 -41 c-15
-15 -15 -15 -4 10 7 15 15 23 17 17 2 -6 -4 -18 -13 -27z m141 -654 c-3 -8 -6
-5 -6 6 -1 11 2 17 5 13 3 -3 4 -12 1 -19z m0 -300 c-3 -8 -6 -5 -6 6 -1 11 2
17 5 13 3 -3 4 -12 1 -19z m63 -153 c1 -44 1 -102 -1 -130 l-1 -50 -10 60 c-9
61 -10 69 -7 163 2 83 18 47 19 -43z m-62 49 c0 -17 -3 -22 -8 -13 -5 6 -6 18
-3 26 8 19 11 16 11 -13z m-1048 -35 c-7 -11 -14 -18 -17 -15 -3 3 0 12 7 21
18 21 23 19 10 -6z m1052 -84 c-2 -14 -6 -25 -7 -25 -1 0 -5 11 -7 25 -3 16
-1 25 7 25 8 0 10 -9 7 -25z m-1187 -57 c-9 -6 -19 -7 -22 -4 -4 3 -1 6 6 6 7
0 9 4 6 10 -4 6 1 7 11 3 15 -6 15 -7 -1 -15z m1192 -60 c-3 -7 -5 -2 -5 12 0
14 2 19 5 13 2 -7 2 -19 0 -25z m4 -71 c-4 -62 -17 -66 -15 -4 3 64 3 62 11
53 4 -4 6 -26 4 -49z m49 -33 c-6 -6 -7 -14 -3 -17 3 -4 1 -7 -5 -7 -14 0 -16
16 -2 25 5 3 7 13 4 23 -5 14 -4 14 4 2 7 -9 7 -19 2 -26z m-1434 4 c4 -7 3
-10 -1 -5 -5 4 -18 -1 -29 -10 -21 -18 -21 -18 -2 5 22 26 23 26 32 10z m-36
-42 c0 -3 -4 -8 -10 -11 -5 -3 -10 -1 -10 4 0 6 5 11 10 11 6 0 10 -2 10 -4z
m1463 -38 c-10 -21 -10 -21 -9 9 1 19 5 28 10 23 6 -6 5 -18 -1 -32z m-43 -40
c0 -28 -3 -48 -7 -45 -10 11 -13 108 -2 102 5 -4 9 -29 9 -57z m-13 -180 c-3
-8 -6 -5 -6 6 -1 11 2 17 5 13 3 -3 4 -12 1 -19z m70 -245 c1 -19 -1 -22 -8
-12 -11 17 -12 39 -1 39 4 0 8 -12 9 -27z m3 -163 c0 -5 -5 -10 -11 -10 -5 0
-7 5 -4 10 3 6 8 10 11 10 2 0 4 -4 4 -10z m-1207 -198 l18 -34 -36 33 c-19
18 -35 34 -35 36 0 1 8 1 18 0 10 0 25 -16 35 -35z m94 -112 c13 -14 23 -29
23 -34 0 -5 -16 8 -35 30 -56 62 -64 72 -58 78 3 3 15 -7 27 -22 11 -15 31
-38 43 -52z m73 -85 c24 -29 24 -29 2 -10 -13 11 -28 29 -34 40 -11 21 -8 18
32 -30z m162 -182 c17 -19 24 -33 16 -33 -7 0 -31 25 -53 55 -22 30 -43 54
-47 55 -4 0 -12 10 -18 23 -6 12 7 2 30 -23 23 -25 55 -60 72 -77z m53 -23
c16 -17 16 -20 3 -15 -9 4 -19 13 -22 21 -7 19 -2 18 19 -6z m772 -12 c-3 -8
-6 -5 -6 6 -1 11 2 17 5 13 3 -3 4 -12 1 -19z m-777 -29 c0 -6 -4 -7 -10 -4
-5 3 -10 11 -10 16 0 6 5 7 10 4 6 -3 10 -11 10 -16z m45 -47 c19 -27 19 -27
0 -12 -39 30 -48 40 -33 40 7 0 22 -13 33 -28z m36 1 c13 -16 12 -17 -3 -4
-17 13 -22 21 -14 21 2 0 10 -8 17 -17z m696 -45 c-3 -8 -6 -5 -6 6 -1 11 2
17 5 13 3 -3 4 -12 1 -19z m-673 -24 c11 -28 6 -39 -9 -20 -8 11 -15 23 -15
28 0 14 18 9 24 -8z m673 -36 c-3 -8 -6 -5 -6 6 -1 11 2 17 5 13 3 -3 4 -12 1
-19z m0 -90 c-3 -7 -5 -2 -5 12 0 14 2 19 5 13 2 -7 2 -19 0 -25z m-417 -168
c10 -19 10 -20 -9 -8 -22 13 -28 28 -11 28 5 0 14 -9 20 -20z m80 -102 c0 -6
-10 0 -23 13 -13 13 -22 26 -20 28 1 2 -2 11 -8 20 -7 9 2 1 20 -17 17 -18 31
-37 31 -44z m364 10 c3 -16 3 -28 -2 -28 -4 0 -9 14 -10 32 -3 37 2 35 12 -4z
m-281 -92 c6 -16 -2 -28 -14 -20 -12 7 -11 34 0 34 5 0 11 -6 14 -14z m53 -68
c3 -10 10 -18 15 -18 5 0 9 -4 9 -10 0 -16 -29 1 -35 21 -4 11 -11 17 -16 14
-5 -4 -9 -4 -9 -1 0 2 -3 12 -6 21 -6 15 -4 15 15 4 12 -8 24 -22 27 -31z"/>
<path d="M5173 5405 c0 -8 4 -12 9 -9 4 3 8 9 8 15 0 5 -4 9 -8 9 -5 0 -9 -7
-9 -15z"/>
<path d="M5133 5363 c-3 -10 -8 -22 -11 -27 -3 -5 0 -6 5 -3 11 7 25 47 17 47
-3 0 -7 -8 -11 -17z"/>
<path d="M1914 3445 c0 -1048 2 -1905 5 -1904 4 0 96 106 206 236 110 129 216
254 236 276 21 23 150 175 289 337 139 162 264 309 279 325 139 159 621 726
621 731 0 3 -26 36 -57 72 -32 37 -68 78 -80 92 -538 630 -1488 1736 -1493
1738 -3 1 -6 -855 -6 -1903z"/>
<path d="M5145 4900 c-3 -5 -1 -10 4 -10 6 0 11 5 11 10 0 6 -2 10 -4 10 -3 0
-8 -4 -11 -10z"/>
<path d="M4035 3930 c-3 -5 -1 -10 4 -10 6 0 11 5 11 10 0 6 -2 10 -4 10 -3 0
-8 -4 -11 -10z"/>
<path d="M3646 3483 c-6 -14 -5 -15 5 -6 7 7 10 15 7 18 -3 3 -9 -2 -12 -12z"/>
<path d="M3580 3373 c0 -5 13 -17 28 -27 l27 -19 -24 26 c-26 28 -31 32 -31
20z"/>
<path d="M3645 3336 c10 -14 19 -26 22 -26 7 0 -17 39 -28 46 -6 3 -3 -5 6
-20z"/>
<path d="M3640 3300 c0 -5 5 -10 11 -10 5 0 7 5 4 10 -3 6 -8 10 -11 10 -2 0
-4 -4 -4 -10z"/>
<path d="M3690 3282 c0 -7 -5 -10 -11 -6 -6 3 -3 -8 5 -25 9 -17 21 -32 26
-32 6 -1 15 -3 20 -4 6 -1 13 -3 18 -4 4 -1 1 -5 -6 -9 -9 -6 -6 -14 13 -32
38 -36 51 -12 15 28 -15 18 -32 32 -37 31 -25 -4 -35 1 -24 14 8 10 7 19 -4
33 -9 12 -14 14 -15 6z m15 -22 c3 -5 1 -10 -4 -10 -6 0 -11 5 -11 10 0 6 2
10 4 10 3 0 8 -4 11 -10z m70 -80 c10 -11 14 -20 9 -20 -5 0 -15 9 -22 20 -7
11 -11 20 -9 20 2 0 12 -9 22 -20z"/>
<path d="M3795 3141 c-3 -6 -5 -11 -3 -12 27 -6 38 -5 35 4 -5 15 -24 20 -32
8z"/>
<path d="M3745 3120 c3 -5 10 -10 16 -10 5 0 9 5 9 10 0 6 -7 10 -16 10 -8 0
-12 -4 -9 -10z"/>
<path d="M3795 3081 c11 -13 18 -24 15 -25 -8 -3 66 -86 76 -86 5 0 10 9 10
19 0 15 -4 17 -13 10 -8 -8 -16 -3 -26 18 -9 15 -30 42 -48 58 -21 19 -26 21
-14 6z"/>
<path d="M5110 1651 c0 -10 19 -25 25 -20 1 2 -3 10 -11 17 -8 7 -14 8 -14 3z"/>
</g>
</svg>
